<svg width="34" height="35" viewBox="0 0 34 35" fill="none" xmlns="http://www.w3.org/2000/svg">
<path fill-rule="evenodd" clip-rule="evenodd" d="M1.00001 1.99987H33V34H1.00001V1.99987Z" fill="#445161"/>
<path d="M15.7676 8.71094H17.2324C17.3626 8.71094 17.4277 8.77604 17.4277 8.90625V26.0938C17.4277 26.224 17.3626 26.2891 17.2324 26.2891H15.7676C15.6374 26.2891 15.5723 26.224 15.5723 26.0938V8.90625C15.5723 8.77604 15.6374 8.71094 15.7676 8.71094Z" fill="white"/>
<path d="M8.29688 16.5723H24.7031C24.8333 16.5723 24.8984 16.6374 24.8984 16.7676V18.2324C24.8984 18.3626 24.8333 18.4277 24.7031 18.4277H8.29688C8.16667 18.4277 8.10156 18.3626 8.10156 18.2324V16.7676C8.10156 16.6374 8.16667 16.5723 8.29688 16.5723Z" fill="white"/>
</svg>
